<mxfile host="Electron" agent="Mozilla/5.0 (Windows NT 10.0; Win64; x64) AppleWebKit/537.36 (KHTML, like Gecko) draw.io/27.0.5 Chrome/134.0.6998.205 Electron/35.3.0 Safari/537.36" version="27.0.5">
  <diagram name="Страница — 1" id="z1fpUaOGZpdqGnygQPZb">
    <mxGraphModel dx="1603" dy="1037" grid="1" gridSize="10" guides="1" tooltips="1" connect="1" arrows="1" fold="1" page="1" pageScale="1" pageWidth="827" pageHeight="1169" math="0" shadow="0">
      <root>
        <mxCell id="0" />
        <mxCell id="1" parent="0" />
        <mxCell id="oMzu2f3fphEvVEeA5ftE-1" value="" style="verticalLabelPosition=bottom;verticalAlign=top;html=1;shape=mxgraph.basic.rect;fillColor2=none;strokeWidth=1;size=30;indent=100;fillColor=none;strokeColor=#FF3333;movable=1;resizable=1;rotatable=1;deletable=1;editable=1;locked=0;connectable=1;" parent="1" vertex="1">
          <mxGeometry x="70" y="80" width="440" height="320" as="geometry" />
        </mxCell>
        <mxCell id="oMzu2f3fphEvVEeA5ftE-2" value="&lt;font style=&quot;font-size: 20px;&quot;&gt;Register File&lt;/font&gt;" style="text;html=1;align=center;verticalAlign=middle;whiteSpace=wrap;rounded=0;strokeColor=none;fontColor=#FF3333;" parent="1" vertex="1">
          <mxGeometry x="390" y="40" width="120" height="30" as="geometry" />
        </mxCell>
        <mxCell id="oMzu2f3fphEvVEeA5ftE-17" style="edgeStyle=orthogonalEdgeStyle;rounded=0;orthogonalLoop=1;jettySize=auto;html=1;entryX=0;entryY=0.5;entryDx=0;entryDy=0;" parent="1" source="oMzu2f3fphEvVEeA5ftE-1" target="oMzu2f3fphEvVEeA5ftE-3" edge="1">
          <mxGeometry relative="1" as="geometry">
            <Array as="points">
              <mxPoint x="160" y="110" />
              <mxPoint x="160" y="110" />
            </Array>
          </mxGeometry>
        </mxCell>
        <mxCell id="oMzu2f3fphEvVEeA5ftE-18" value="0" style="edgeLabel;html=1;align=center;verticalAlign=middle;resizable=0;points=[];" parent="oMzu2f3fphEvVEeA5ftE-17" vertex="1" connectable="0">
          <mxGeometry x="-0.1341" relative="1" as="geometry">
            <mxPoint as="offset" />
          </mxGeometry>
        </mxCell>
        <mxCell id="oMzu2f3fphEvVEeA5ftE-34" style="edgeStyle=orthogonalEdgeStyle;rounded=0;orthogonalLoop=1;jettySize=auto;html=1;exitX=1;exitY=0.25;exitDx=0;exitDy=0;entryX=0.5;entryY=0;entryDx=0;entryDy=0;fillColor=#f8cecc;strokeColor=#b85450;" parent="1" source="oMzu2f3fphEvVEeA5ftE-3" target="oMzu2f3fphEvVEeA5ftE-7" edge="1">
          <mxGeometry relative="1" as="geometry">
            <Array as="points">
              <mxPoint x="160" y="305" />
              <mxPoint x="420" y="305" />
            </Array>
          </mxGeometry>
        </mxCell>
        <mxCell id="oMzu2f3fphEvVEeA5ftE-3" value="r0" style="rounded=0;whiteSpace=wrap;html=1;direction=south;" parent="1" vertex="1">
          <mxGeometry x="130" y="160" width="40" height="120" as="geometry" />
        </mxCell>
        <mxCell id="oMzu2f3fphEvVEeA5ftE-12" style="edgeStyle=orthogonalEdgeStyle;rounded=0;orthogonalLoop=1;jettySize=auto;html=1;entryX=0;entryY=0.5;entryDx=0;entryDy=0;" parent="1" target="oMzu2f3fphEvVEeA5ftE-4" edge="1">
          <mxGeometry relative="1" as="geometry">
            <mxPoint x="190" y="40" as="sourcePoint" />
            <Array as="points">
              <mxPoint x="190" y="120" />
              <mxPoint x="210" y="120" />
            </Array>
          </mxGeometry>
        </mxCell>
        <mxCell id="oMzu2f3fphEvVEeA5ftE-21" style="edgeStyle=orthogonalEdgeStyle;rounded=0;orthogonalLoop=1;jettySize=auto;html=1;exitX=1;exitY=0.75;exitDx=0;exitDy=0;entryX=0.25;entryY=0;entryDx=0;entryDy=0;fillColor=#dae8fc;strokeColor=#6c8ebf;" parent="1" source="oMzu2f3fphEvVEeA5ftE-4" target="oMzu2f3fphEvVEeA5ftE-6" edge="1">
          <mxGeometry relative="1" as="geometry">
            <mxPoint x="230" y="298" as="sourcePoint" />
            <mxPoint x="135" y="348" as="targetPoint" />
            <Array as="points">
              <mxPoint x="200" y="312" />
              <mxPoint x="135" y="312" />
            </Array>
          </mxGeometry>
        </mxCell>
        <mxCell id="oMzu2f3fphEvVEeA5ftE-4" value="r1" style="rounded=0;whiteSpace=wrap;html=1;direction=south;" parent="1" vertex="1">
          <mxGeometry x="190" y="160" width="40" height="120" as="geometry" />
        </mxCell>
        <mxCell id="oMzu2f3fphEvVEeA5ftE-13" style="edgeStyle=orthogonalEdgeStyle;rounded=0;orthogonalLoop=1;jettySize=auto;html=1;entryX=0;entryY=0.5;entryDx=0;entryDy=0;" parent="1" target="oMzu2f3fphEvVEeA5ftE-5" edge="1">
          <mxGeometry relative="1" as="geometry">
            <mxPoint x="190" y="40" as="sourcePoint" />
            <Array as="points">
              <mxPoint x="190" y="40" />
              <mxPoint x="190" y="120" />
              <mxPoint x="350" y="120" />
            </Array>
          </mxGeometry>
        </mxCell>
        <mxCell id="oMzu2f3fphEvVEeA5ftE-31" style="edgeStyle=orthogonalEdgeStyle;rounded=0;orthogonalLoop=1;jettySize=auto;html=1;exitX=1;exitY=0.25;exitDx=0;exitDy=0;entryX=0.75;entryY=0;entryDx=0;entryDy=0;fillColor=#f8cecc;strokeColor=#b85450;" parent="1" source="oMzu2f3fphEvVEeA5ftE-5" target="oMzu2f3fphEvVEeA5ftE-7" edge="1">
          <mxGeometry relative="1" as="geometry">
            <mxPoint x="350" y="275" as="sourcePoint" />
            <mxPoint x="445" y="325" as="targetPoint" />
            <Array as="points">
              <mxPoint x="360" y="295" />
              <mxPoint x="445" y="295" />
            </Array>
          </mxGeometry>
        </mxCell>
        <mxCell id="oMzu2f3fphEvVEeA5ftE-5" value="r30" style="rounded=0;whiteSpace=wrap;html=1;direction=south;" parent="1" vertex="1">
          <mxGeometry x="330" y="160" width="40" height="120" as="geometry" />
        </mxCell>
        <mxCell id="oMzu2f3fphEvVEeA5ftE-36" style="edgeStyle=orthogonalEdgeStyle;rounded=0;orthogonalLoop=1;jettySize=auto;html=1;exitX=0.5;exitY=1;exitDx=0;exitDy=0;" parent="1" source="oMzu2f3fphEvVEeA5ftE-6" edge="1">
          <mxGeometry relative="1" as="geometry">
            <mxPoint x="160.31034482758628" y="440" as="targetPoint" />
          </mxGeometry>
        </mxCell>
        <mxCell id="oMzu2f3fphEvVEeA5ftE-38" value="to DataPath" style="edgeLabel;html=1;align=center;verticalAlign=middle;resizable=0;points=[];" parent="oMzu2f3fphEvVEeA5ftE-36" vertex="1" connectable="0">
          <mxGeometry x="-0.1305" relative="1" as="geometry">
            <mxPoint y="4" as="offset" />
          </mxGeometry>
        </mxCell>
        <mxCell id="oMzu2f3fphEvVEeA5ftE-40" style="edgeStyle=orthogonalEdgeStyle;rounded=0;orthogonalLoop=1;jettySize=auto;html=1;exitX=1;exitY=0.5;exitDx=0;exitDy=0;entryX=1;entryY=0.5;entryDx=0;entryDy=0;" parent="1" source="oMzu2f3fphEvVEeA5ftE-6" target="oMzu2f3fphEvVEeA5ftE-6" edge="1">
          <mxGeometry relative="1" as="geometry">
            <Array as="points" />
          </mxGeometry>
        </mxCell>
        <mxCell id="oMzu2f3fphEvVEeA5ftE-41" style="edgeStyle=orthogonalEdgeStyle;rounded=0;orthogonalLoop=1;jettySize=auto;html=1;exitX=0.409;exitY=0.875;exitDx=0;exitDy=0;entryX=1;entryY=0.5;entryDx=0;entryDy=0;exitPerimeter=0;dashed=1;" parent="1" source="oMzu2f3fphEvVEeA5ftE-1" target="oMzu2f3fphEvVEeA5ftE-6" edge="1">
          <mxGeometry relative="1" as="geometry">
            <mxPoint x="230" y="360" as="sourcePoint" />
            <Array as="points">
              <mxPoint x="230" y="360" />
              <mxPoint x="230" y="360" />
            </Array>
          </mxGeometry>
        </mxCell>
        <mxCell id="oMzu2f3fphEvVEeA5ftE-43" value="&lt;font style=&quot;font-size: 8px;&quot;&gt;sel_left_reg&lt;/font&gt;" style="edgeLabel;html=1;align=center;verticalAlign=middle;resizable=0;points=[];" parent="oMzu2f3fphEvVEeA5ftE-41" vertex="1" connectable="0">
          <mxGeometry x="-0.631" y="-2" relative="1" as="geometry">
            <mxPoint y="-6" as="offset" />
          </mxGeometry>
        </mxCell>
        <mxCell id="oMzu2f3fphEvVEeA5ftE-6" value="MUX" style="verticalLabelPosition=middle;verticalAlign=middle;html=1;shape=trapezoid;perimeter=trapezoidPerimeter;whiteSpace=wrap;size=0.23;arcSize=10;flipV=1;labelPosition=center;align=center;" parent="1" vertex="1">
          <mxGeometry x="110" y="330" width="100" height="60" as="geometry" />
        </mxCell>
        <mxCell id="oMzu2f3fphEvVEeA5ftE-37" style="edgeStyle=orthogonalEdgeStyle;rounded=0;orthogonalLoop=1;jettySize=auto;html=1;exitX=0.5;exitY=1;exitDx=0;exitDy=0;" parent="1" source="oMzu2f3fphEvVEeA5ftE-7" edge="1">
          <mxGeometry relative="1" as="geometry">
            <mxPoint x="420.3103448275863" y="440" as="targetPoint" />
          </mxGeometry>
        </mxCell>
        <mxCell id="oMzu2f3fphEvVEeA5ftE-39" value="to DataPath" style="edgeLabel;html=1;align=center;verticalAlign=middle;resizable=0;points=[];" parent="oMzu2f3fphEvVEeA5ftE-37" vertex="1" connectable="0">
          <mxGeometry x="-0.3478" y="1" relative="1" as="geometry">
            <mxPoint y="10" as="offset" />
          </mxGeometry>
        </mxCell>
        <mxCell id="oMzu2f3fphEvVEeA5ftE-7" value="MUX" style="verticalLabelPosition=middle;verticalAlign=middle;html=1;shape=trapezoid;perimeter=trapezoidPerimeter;whiteSpace=wrap;size=0.23;arcSize=10;flipV=1;labelPosition=center;align=center;" parent="1" vertex="1">
          <mxGeometry x="370" y="330" width="100" height="60" as="geometry" />
        </mxCell>
        <mxCell id="oMzu2f3fphEvVEeA5ftE-8" value="..." style="text;html=1;align=center;verticalAlign=middle;whiteSpace=wrap;rounded=0;" parent="1" vertex="1">
          <mxGeometry x="260" y="200" width="40" height="40" as="geometry" />
        </mxCell>
        <mxCell id="oMzu2f3fphEvVEeA5ftE-16" style="edgeStyle=orthogonalEdgeStyle;rounded=0;orthogonalLoop=1;jettySize=auto;html=1;entryX=0;entryY=0.5;entryDx=0;entryDy=0;" parent="1" target="oMzu2f3fphEvVEeA5ftE-15" edge="1">
          <mxGeometry relative="1" as="geometry">
            <mxPoint x="190" y="40" as="sourcePoint" />
            <Array as="points">
              <mxPoint x="190" y="40" />
              <mxPoint x="190" y="120" />
              <mxPoint x="410" y="120" />
            </Array>
          </mxGeometry>
        </mxCell>
        <mxCell id="oMzu2f3fphEvVEeA5ftE-19" value="from DataPath" style="edgeLabel;html=1;align=center;verticalAlign=middle;resizable=0;points=[];" parent="oMzu2f3fphEvVEeA5ftE-16" vertex="1" connectable="0">
          <mxGeometry x="-0.8892" y="3" relative="1" as="geometry">
            <mxPoint as="offset" />
          </mxGeometry>
        </mxCell>
        <mxCell id="oMzu2f3fphEvVEeA5ftE-35" value="imm | offset" style="edgeLabel;html=1;align=center;verticalAlign=middle;resizable=0;points=[];" parent="oMzu2f3fphEvVEeA5ftE-16" vertex="1" connectable="0">
          <mxGeometry x="0.8576" y="1" relative="1" as="geometry">
            <mxPoint x="-7" y="-1" as="offset" />
          </mxGeometry>
        </mxCell>
        <mxCell id="oMzu2f3fphEvVEeA5ftE-23" style="edgeStyle=orthogonalEdgeStyle;rounded=0;orthogonalLoop=1;jettySize=auto;html=1;exitX=1;exitY=0.75;exitDx=0;exitDy=0;entryX=0.5;entryY=0;entryDx=0;entryDy=0;fillColor=#dae8fc;strokeColor=#6c8ebf;" parent="1" source="oMzu2f3fphEvVEeA5ftE-15" target="oMzu2f3fphEvVEeA5ftE-6" edge="1">
          <mxGeometry relative="1" as="geometry">
            <Array as="points">
              <mxPoint x="400" y="320" />
              <mxPoint x="160" y="320" />
            </Array>
          </mxGeometry>
        </mxCell>
        <mxCell id="oMzu2f3fphEvVEeA5ftE-15" value="r31" style="rounded=0;whiteSpace=wrap;html=1;direction=south;" parent="1" vertex="1">
          <mxGeometry x="390" y="160" width="40" height="120" as="geometry" />
        </mxCell>
        <mxCell id="oMzu2f3fphEvVEeA5ftE-20" style="edgeStyle=orthogonalEdgeStyle;rounded=0;orthogonalLoop=1;jettySize=auto;html=1;exitX=1;exitY=0.75;exitDx=0;exitDy=0;entryX=0.096;entryY=0.994;entryDx=0;entryDy=0;entryPerimeter=0;fillColor=#dae8fc;strokeColor=#6c8ebf;" parent="1" source="oMzu2f3fphEvVEeA5ftE-3" target="oMzu2f3fphEvVEeA5ftE-6" edge="1">
          <mxGeometry relative="1" as="geometry">
            <mxPoint x="170" y="299" as="sourcePoint" />
            <mxPoint x="119.80000000000001" y="349.48" as="targetPoint" />
            <Array as="points">
              <mxPoint x="140" y="309" />
              <mxPoint x="120" y="309" />
            </Array>
          </mxGeometry>
        </mxCell>
        <mxCell id="oMzu2f3fphEvVEeA5ftE-22" style="edgeStyle=orthogonalEdgeStyle;rounded=0;orthogonalLoop=1;jettySize=auto;html=1;entryX=0.401;entryY=1.003;entryDx=0;entryDy=0;entryPerimeter=0;fillColor=#dae8fc;strokeColor=#6c8ebf;" parent="1" target="oMzu2f3fphEvVEeA5ftE-6" edge="1">
          <mxGeometry relative="1" as="geometry">
            <mxPoint x="340" y="280" as="sourcePoint" />
            <mxPoint x="150.10000000000002" y="338" as="targetPoint" />
            <Array as="points">
              <mxPoint x="340" y="280" />
              <mxPoint x="340" y="315" />
              <mxPoint x="150" y="315" />
            </Array>
          </mxGeometry>
        </mxCell>
        <mxCell id="oMzu2f3fphEvVEeA5ftE-30" style="edgeStyle=orthogonalEdgeStyle;rounded=0;orthogonalLoop=1;jettySize=auto;html=1;exitX=1;exitY=0.25;exitDx=0;exitDy=0;entryX=0.904;entryY=0.994;entryDx=0;entryDy=0;entryPerimeter=0;fillColor=#f8cecc;strokeColor=#b85450;" parent="1" source="oMzu2f3fphEvVEeA5ftE-15" target="oMzu2f3fphEvVEeA5ftE-7" edge="1">
          <mxGeometry relative="1" as="geometry">
            <Array as="points">
              <mxPoint x="420" y="290" />
              <mxPoint x="460" y="290" />
            </Array>
          </mxGeometry>
        </mxCell>
        <mxCell id="oMzu2f3fphEvVEeA5ftE-33" style="edgeStyle=orthogonalEdgeStyle;rounded=0;orthogonalLoop=1;jettySize=auto;html=1;exitX=1;exitY=0.25;exitDx=0;exitDy=0;entryX=0.607;entryY=1.004;entryDx=0;entryDy=0;entryPerimeter=0;fillColor=#f8cecc;strokeColor=#b85450;" parent="1" source="oMzu2f3fphEvVEeA5ftE-4" edge="1">
          <mxGeometry relative="1" as="geometry">
            <mxPoint x="230" y="279.99999999999994" as="sourcePoint" />
            <mxPoint x="430.69999999999993" y="329.75999999999993" as="targetPoint" />
            <Array as="points">
              <mxPoint x="220" y="300" />
              <mxPoint x="431" y="300" />
            </Array>
          </mxGeometry>
        </mxCell>
        <mxCell id="oMzu2f3fphEvVEeA5ftE-42" style="edgeStyle=orthogonalEdgeStyle;rounded=0;orthogonalLoop=1;jettySize=auto;html=1;exitX=0;exitY=0.5;exitDx=0;exitDy=0;entryX=0;entryY=0.5;entryDx=0;entryDy=0;dashed=1;" parent="1" target="oMzu2f3fphEvVEeA5ftE-7" edge="1">
          <mxGeometry relative="1" as="geometry">
            <mxPoint x="330" y="359.8" as="sourcePoint" />
            <mxPoint x="381" y="359.8" as="targetPoint" />
            <Array as="points">
              <mxPoint x="360" y="360" />
            </Array>
          </mxGeometry>
        </mxCell>
        <mxCell id="oMzu2f3fphEvVEeA5ftE-44" value="&lt;font style=&quot;font-size: 8px;&quot;&gt;sel_right_reg&lt;/font&gt;" style="edgeLabel;html=1;align=center;verticalAlign=middle;resizable=0;points=[];" parent="oMzu2f3fphEvVEeA5ftE-42" vertex="1" connectable="0">
          <mxGeometry x="0.0134" y="-2" relative="1" as="geometry">
            <mxPoint x="-15" y="-11" as="offset" />
          </mxGeometry>
        </mxCell>
        <mxCell id="oMzu2f3fphEvVEeA5ftE-46" value="" style="endArrow=classic;html=1;rounded=0;entryX=0;entryY=1;entryDx=0;entryDy=0;dashed=1;" parent="1" target="oMzu2f3fphEvVEeA5ftE-3" edge="1">
          <mxGeometry width="50" height="50" relative="1" as="geometry">
            <mxPoint x="90" y="160" as="sourcePoint" />
            <mxPoint x="130" y="160" as="targetPoint" />
          </mxGeometry>
        </mxCell>
        <mxCell id="oMzu2f3fphEvVEeA5ftE-47" value="&lt;font style=&quot;font-size: 8px;&quot;&gt;latch_reg_n&lt;/font&gt;" style="edgeLabel;html=1;align=center;verticalAlign=middle;resizable=0;points=[];" parent="oMzu2f3fphEvVEeA5ftE-46" vertex="1" connectable="0">
          <mxGeometry x="0.0535" relative="1" as="geometry">
            <mxPoint x="-3" y="-13" as="offset" />
          </mxGeometry>
        </mxCell>
        <mxCell id="oMzu2f3fphEvVEeA5ftE-48" value="" style="endArrow=classic;html=1;rounded=0;dashed=1;entryX=0;entryY=0;entryDx=0;entryDy=0;" parent="1" target="oMzu2f3fphEvVEeA5ftE-4" edge="1">
          <mxGeometry width="50" height="50" relative="1" as="geometry">
            <mxPoint x="270" y="160" as="sourcePoint" />
            <mxPoint x="250" y="159.52" as="targetPoint" />
          </mxGeometry>
        </mxCell>
        <mxCell id="oMzu2f3fphEvVEeA5ftE-49" value="&lt;font style=&quot;font-size: 8px;&quot;&gt;latch_reg_n&lt;/font&gt;" style="edgeLabel;html=1;align=center;verticalAlign=middle;resizable=0;points=[];" parent="oMzu2f3fphEvVEeA5ftE-48" vertex="1" connectable="0">
          <mxGeometry x="0.0535" relative="1" as="geometry">
            <mxPoint x="1" y="-12" as="offset" />
          </mxGeometry>
        </mxCell>
        <mxCell id="oMzu2f3fphEvVEeA5ftE-52" value="" style="endArrow=classic;html=1;rounded=0;entryX=0;entryY=1;entryDx=0;entryDy=0;dashed=1;" parent="1" target="oMzu2f3fphEvVEeA5ftE-5" edge="1">
          <mxGeometry width="50" height="50" relative="1" as="geometry">
            <mxPoint x="290" y="160" as="sourcePoint" />
            <mxPoint x="330" y="160" as="targetPoint" />
          </mxGeometry>
        </mxCell>
        <mxCell id="oMzu2f3fphEvVEeA5ftE-53" value="&lt;font style=&quot;font-size: 8px;&quot;&gt;latch_reg_n&lt;/font&gt;" style="edgeLabel;html=1;align=center;verticalAlign=middle;resizable=0;points=[];" parent="oMzu2f3fphEvVEeA5ftE-52" vertex="1" connectable="0">
          <mxGeometry x="0.0535" relative="1" as="geometry">
            <mxPoint x="-3" y="-12" as="offset" />
          </mxGeometry>
        </mxCell>
        <mxCell id="oMzu2f3fphEvVEeA5ftE-54" value="" style="endArrow=classic;html=1;rounded=0;dashed=1;entryX=0;entryY=0;entryDx=0;entryDy=0;" parent="1" target="oMzu2f3fphEvVEeA5ftE-15" edge="1">
          <mxGeometry width="50" height="50" relative="1" as="geometry">
            <mxPoint x="470" y="160" as="sourcePoint" />
            <mxPoint x="430" y="160" as="targetPoint" />
          </mxGeometry>
        </mxCell>
        <mxCell id="oMzu2f3fphEvVEeA5ftE-55" value="&lt;font style=&quot;font-size: 8px;&quot;&gt;latch_reg_n&lt;/font&gt;" style="edgeLabel;html=1;align=center;verticalAlign=middle;resizable=0;points=[];" parent="oMzu2f3fphEvVEeA5ftE-54" vertex="1" connectable="0">
          <mxGeometry x="0.0535" relative="1" as="geometry">
            <mxPoint x="1" y="-12" as="offset" />
          </mxGeometry>
        </mxCell>
        <mxCell id="oMzu2f3fphEvVEeA5ftE-56" value="" style="rounded=0;whiteSpace=wrap;html=1;fillColor=none;strokeColor=#6666FF;movable=1;resizable=1;rotatable=1;deletable=1;editable=1;locked=0;connectable=1;" parent="1" vertex="1">
          <mxGeometry x="70" y="560" width="440" height="520" as="geometry" />
        </mxCell>
        <mxCell id="oMzu2f3fphEvVEeA5ftE-57" value="&lt;font style=&quot;color: rgb(102, 102, 255); font-size: 20px;&quot;&gt;Control Unit&lt;/font&gt;" style="text;html=1;align=center;verticalAlign=middle;whiteSpace=wrap;rounded=0;" parent="1" vertex="1">
          <mxGeometry x="390" y="520" width="120" height="30" as="geometry" />
        </mxCell>
        <mxCell id="oMzu2f3fphEvVEeA5ftE-61" style="edgeStyle=orthogonalEdgeStyle;rounded=0;orthogonalLoop=1;jettySize=auto;html=1;exitX=1;exitY=0.5;exitDx=0;exitDy=0;entryX=0.5;entryY=0;entryDx=0;entryDy=0;" parent="1" source="oMzu2f3fphEvVEeA5ftE-58" target="oMzu2f3fphEvVEeA5ftE-60" edge="1">
          <mxGeometry relative="1" as="geometry" />
        </mxCell>
        <mxCell id="oMzu2f3fphEvVEeA5ftE-63" value="25 bit bus" style="edgeLabel;html=1;align=center;verticalAlign=middle;resizable=0;points=[];" parent="oMzu2f3fphEvVEeA5ftE-61" vertex="1" connectable="0">
          <mxGeometry x="0.1763" y="-2" relative="1" as="geometry">
            <mxPoint x="34" y="29" as="offset" />
          </mxGeometry>
        </mxCell>
        <mxCell id="oMzu2f3fphEvVEeA5ftE-62" style="edgeStyle=orthogonalEdgeStyle;rounded=0;orthogonalLoop=1;jettySize=auto;html=1;exitX=0.5;exitY=1;exitDx=0;exitDy=0;entryX=0.5;entryY=0;entryDx=0;entryDy=0;" parent="1" source="oMzu2f3fphEvVEeA5ftE-58" target="oMzu2f3fphEvVEeA5ftE-59" edge="1">
          <mxGeometry relative="1" as="geometry" />
        </mxCell>
        <mxCell id="oMzu2f3fphEvVEeA5ftE-72" style="edgeStyle=orthogonalEdgeStyle;rounded=0;orthogonalLoop=1;jettySize=auto;html=1;exitX=0.5;exitY=0;exitDx=0;exitDy=0;entryX=0.5;entryY=0;entryDx=0;entryDy=0;" parent="1" target="oMzu2f3fphEvVEeA5ftE-58" edge="1">
          <mxGeometry relative="1" as="geometry">
            <mxPoint x="190" y="520" as="sourcePoint" />
            <Array as="points">
              <mxPoint x="190" y="560" />
              <mxPoint x="190" y="560" />
            </Array>
          </mxGeometry>
        </mxCell>
        <mxCell id="oMzu2f3fphEvVEeA5ftE-73" value="bin instruction from DataPath" style="edgeLabel;html=1;align=center;verticalAlign=middle;resizable=0;points=[];" parent="oMzu2f3fphEvVEeA5ftE-72" vertex="1" connectable="0">
          <mxGeometry x="-0.4911" relative="1" as="geometry">
            <mxPoint as="offset" />
          </mxGeometry>
        </mxCell>
        <mxCell id="oMzu2f3fphEvVEeA5ftE-58" value="Instruction Decoder" style="rounded=1;whiteSpace=wrap;html=1;" parent="1" vertex="1">
          <mxGeometry x="130" y="585" width="120" height="60" as="geometry" />
        </mxCell>
        <mxCell id="oMzu2f3fphEvVEeA5ftE-67" style="edgeStyle=orthogonalEdgeStyle;rounded=0;orthogonalLoop=1;jettySize=auto;html=1;exitX=0.5;exitY=1;exitDx=0;exitDy=0;entryX=0.5;entryY=0;entryDx=0;entryDy=0;" parent="1" source="oMzu2f3fphEvVEeA5ftE-59" target="oMzu2f3fphEvVEeA5ftE-66" edge="1">
          <mxGeometry relative="1" as="geometry" />
        </mxCell>
        <mxCell id="oMzu2f3fphEvVEeA5ftE-68" value="type + opcode + opext" style="edgeLabel;html=1;align=center;verticalAlign=middle;resizable=0;points=[];" parent="oMzu2f3fphEvVEeA5ftE-67" vertex="1" connectable="0">
          <mxGeometry x="-0.0362" y="1" relative="1" as="geometry">
            <mxPoint y="-13" as="offset" />
          </mxGeometry>
        </mxCell>
        <mxCell id="oMzu2f3fphEvVEeA5ftE-59" value="IR" style="rounded=0;whiteSpace=wrap;html=1;" parent="1" vertex="1">
          <mxGeometry x="130" y="680" width="120" height="40" as="geometry" />
        </mxCell>
        <mxCell id="oMzu2f3fphEvVEeA5ftE-88" style="edgeStyle=orthogonalEdgeStyle;rounded=0;orthogonalLoop=1;jettySize=auto;html=1;exitX=0.5;exitY=1;exitDx=0;exitDy=0;entryX=0.5;entryY=0;entryDx=0;entryDy=0;" parent="1" source="oMzu2f3fphEvVEeA5ftE-60" target="oMzu2f3fphEvVEeA5ftE-85" edge="1">
          <mxGeometry relative="1" as="geometry" />
        </mxCell>
        <mxCell id="oMzu2f3fphEvVEeA5ftE-60" value="OR" style="rounded=0;whiteSpace=wrap;html=1;" parent="1" vertex="1">
          <mxGeometry x="390" y="680" width="80" height="40" as="geometry" />
        </mxCell>
        <mxCell id="oMzu2f3fphEvVEeA5ftE-78" style="edgeStyle=orthogonalEdgeStyle;rounded=0;orthogonalLoop=1;jettySize=auto;html=1;exitX=0.5;exitY=1;exitDx=0;exitDy=0;entryX=0.5;entryY=0;entryDx=0;entryDy=0;" parent="1" source="oMzu2f3fphEvVEeA5ftE-66" target="oMzu2f3fphEvVEeA5ftE-77" edge="1">
          <mxGeometry relative="1" as="geometry" />
        </mxCell>
        <mxCell id="oMzu2f3fphEvVEeA5ftE-66" value="MUX" style="verticalLabelPosition=middle;verticalAlign=middle;html=1;shape=trapezoid;perimeter=trapezoidPerimeter;whiteSpace=wrap;size=0.23;arcSize=10;flipV=1;labelPosition=center;align=center;" parent="1" vertex="1">
          <mxGeometry x="140" y="800" width="100" height="40" as="geometry" />
        </mxCell>
        <mxCell id="oMzu2f3fphEvVEeA5ftE-70" value="" style="endArrow=classic;html=1;rounded=0;entryX=0.75;entryY=0;entryDx=0;entryDy=0;edgeStyle=orthogonalEdgeStyle;" parent="1" target="oMzu2f3fphEvVEeA5ftE-66" edge="1">
          <mxGeometry width="50" height="50" relative="1" as="geometry">
            <mxPoint x="250" y="780" as="sourcePoint" />
            <mxPoint x="305" y="790" as="targetPoint" />
            <Array as="points">
              <mxPoint x="250" y="780" />
              <mxPoint x="215" y="780" />
            </Array>
          </mxGeometry>
        </mxCell>
        <mxCell id="oMzu2f3fphEvVEeA5ftE-71" value="0" style="edgeLabel;html=1;align=center;verticalAlign=middle;resizable=0;points=[];" parent="oMzu2f3fphEvVEeA5ftE-70" vertex="1" connectable="0">
          <mxGeometry x="-0.3598" relative="1" as="geometry">
            <mxPoint as="offset" />
          </mxGeometry>
        </mxCell>
        <mxCell id="oMzu2f3fphEvVEeA5ftE-94" style="edgeStyle=orthogonalEdgeStyle;rounded=0;orthogonalLoop=1;jettySize=auto;html=1;exitX=0.5;exitY=1;exitDx=0;exitDy=0;entryX=0.5;entryY=1;entryDx=0;entryDy=0;" parent="1" source="oMzu2f3fphEvVEeA5ftE-74" target="oMzu2f3fphEvVEeA5ftE-85" edge="1">
          <mxGeometry relative="1" as="geometry">
            <Array as="points">
              <mxPoint x="190" y="1070" />
              <mxPoint x="430" y="1070" />
            </Array>
          </mxGeometry>
        </mxCell>
        <mxCell id="oMzu2f3fphEvVEeA5ftE-95" value="&lt;font style=&quot;font-size: 8px;&quot;&gt;NZ Flags&lt;/font&gt;" style="edgeLabel;html=1;align=center;verticalAlign=middle;resizable=0;points=[];" parent="oMzu2f3fphEvVEeA5ftE-94" vertex="1" connectable="0">
          <mxGeometry x="0.1581" y="1" relative="1" as="geometry">
            <mxPoint x="6" as="offset" />
          </mxGeometry>
        </mxCell>
        <mxCell id="oMzu2f3fphEvVEeA5ftE-74" value="DataPath" style="rounded=1;whiteSpace=wrap;html=1;strokeColor=#66CC00;" parent="1" vertex="1">
          <mxGeometry x="90" y="960" width="200" height="80" as="geometry" />
        </mxCell>
        <mxCell id="oMzu2f3fphEvVEeA5ftE-76" style="edgeStyle=orthogonalEdgeStyle;rounded=0;orthogonalLoop=1;jettySize=auto;html=1;exitX=0.5;exitY=0;exitDx=0;exitDy=0;entryX=0.25;entryY=0;entryDx=0;entryDy=0;" parent="1" source="oMzu2f3fphEvVEeA5ftE-75" target="oMzu2f3fphEvVEeA5ftE-66" edge="1">
          <mxGeometry relative="1" as="geometry" />
        </mxCell>
        <mxCell id="oMzu2f3fphEvVEeA5ftE-75" value="MUX" style="verticalLabelPosition=middle;verticalAlign=middle;html=1;shape=trapezoid;perimeter=trapezoidPerimeter;whiteSpace=wrap;size=0.23;arcSize=10;flipV=0;labelPosition=center;align=center;" parent="1" vertex="1">
          <mxGeometry x="90" y="800" width="40" height="40" as="geometry" />
        </mxCell>
        <mxCell id="oMzu2f3fphEvVEeA5ftE-79" style="edgeStyle=orthogonalEdgeStyle;rounded=0;orthogonalLoop=1;jettySize=auto;html=1;exitX=0;exitY=0.25;exitDx=0;exitDy=0;entryX=0.75;entryY=1;entryDx=0;entryDy=0;" parent="1" source="oMzu2f3fphEvVEeA5ftE-77" target="oMzu2f3fphEvVEeA5ftE-75" edge="1">
          <mxGeometry relative="1" as="geometry" />
        </mxCell>
        <mxCell id="oMzu2f3fphEvVEeA5ftE-81" value="+1" style="edgeLabel;html=1;align=center;verticalAlign=middle;resizable=0;points=[];" parent="oMzu2f3fphEvVEeA5ftE-79" vertex="1" connectable="0">
          <mxGeometry x="-0.4511" relative="1" as="geometry">
            <mxPoint x="-8" y="-24" as="offset" />
          </mxGeometry>
        </mxCell>
        <mxCell id="oMzu2f3fphEvVEeA5ftE-80" style="edgeStyle=orthogonalEdgeStyle;rounded=0;orthogonalLoop=1;jettySize=auto;html=1;exitX=0;exitY=0.75;exitDx=0;exitDy=0;entryX=0.25;entryY=1;entryDx=0;entryDy=0;" parent="1" source="oMzu2f3fphEvVEeA5ftE-77" target="oMzu2f3fphEvVEeA5ftE-75" edge="1">
          <mxGeometry relative="1" as="geometry" />
        </mxCell>
        <mxCell id="oMzu2f3fphEvVEeA5ftE-82" value="+2" style="edgeLabel;html=1;align=center;verticalAlign=middle;resizable=0;points=[];" parent="oMzu2f3fphEvVEeA5ftE-80" vertex="1" connectable="0">
          <mxGeometry x="-0.3698" relative="1" as="geometry">
            <mxPoint x="-13" y="-44" as="offset" />
          </mxGeometry>
        </mxCell>
        <mxCell id="oMzu2f3fphEvVEeA5ftE-84" style="edgeStyle=orthogonalEdgeStyle;rounded=0;orthogonalLoop=1;jettySize=auto;html=1;exitX=1;exitY=0.5;exitDx=0;exitDy=0;entryX=0;entryY=0.5;entryDx=0;entryDy=0;" parent="1" source="oMzu2f3fphEvVEeA5ftE-77" target="oMzu2f3fphEvVEeA5ftE-83" edge="1">
          <mxGeometry relative="1" as="geometry">
            <Array as="points">
              <mxPoint x="270" y="900" />
              <mxPoint x="270" y="800" />
            </Array>
          </mxGeometry>
        </mxCell>
        <mxCell id="oMzu2f3fphEvVEeA5ftE-77" value="MPC" style="rounded=0;whiteSpace=wrap;html=1;" parent="1" vertex="1">
          <mxGeometry x="150" y="880" width="80" height="40" as="geometry" />
        </mxCell>
        <mxCell id="oMzu2f3fphEvVEeA5ftE-86" style="edgeStyle=orthogonalEdgeStyle;rounded=0;orthogonalLoop=1;jettySize=auto;html=1;exitX=1;exitY=0.5;exitDx=0;exitDy=0;entryX=0;entryY=0.5;entryDx=0;entryDy=0;" parent="1" source="oMzu2f3fphEvVEeA5ftE-83" target="oMzu2f3fphEvVEeA5ftE-85" edge="1">
          <mxGeometry relative="1" as="geometry">
            <Array as="points">
              <mxPoint x="370" y="800" />
              <mxPoint x="370" y="900" />
            </Array>
          </mxGeometry>
        </mxCell>
        <mxCell id="oMzu2f3fphEvVEeA5ftE-87" value="&lt;font&gt;microprogram&lt;/font&gt;" style="edgeLabel;html=1;align=center;verticalAlign=middle;resizable=0;points=[];rotation=90;" parent="oMzu2f3fphEvVEeA5ftE-86" vertex="1" connectable="0">
          <mxGeometry x="-0.3125" y="1" relative="1" as="geometry">
            <mxPoint x="-1" y="18" as="offset" />
          </mxGeometry>
        </mxCell>
        <mxCell id="oMzu2f3fphEvVEeA5ftE-83" value="MP memory" style="rounded=0;whiteSpace=wrap;html=1;" parent="1" vertex="1">
          <mxGeometry x="290" y="750" width="60" height="100" as="geometry" />
        </mxCell>
        <mxCell id="oMzu2f3fphEvVEeA5ftE-85" value="MP Decoder" style="rounded=1;whiteSpace=wrap;html=1;" parent="1" vertex="1">
          <mxGeometry x="390" y="760" width="80" height="280" as="geometry" />
        </mxCell>
        <mxCell id="oMzu2f3fphEvVEeA5ftE-96" style="edgeStyle=orthogonalEdgeStyle;rounded=0;orthogonalLoop=1;jettySize=auto;html=1;exitX=-0.013;exitY=0.777;exitDx=0;exitDy=0;entryX=1;entryY=0.25;entryDx=0;entryDy=0;exitPerimeter=0;dashed=1;" parent="1" edge="1">
          <mxGeometry relative="1" as="geometry">
            <mxPoint x="388.96" y="980.06" as="sourcePoint" />
            <mxPoint x="290" y="980" as="targetPoint" />
            <Array as="points">
              <mxPoint x="340" y="980" />
            </Array>
          </mxGeometry>
        </mxCell>
        <mxCell id="oMzu2f3fphEvVEeA5ftE-99" value="&lt;font style=&quot;font-size: 8px;&quot;&gt;signals&lt;/font&gt;" style="edgeLabel;html=1;align=center;verticalAlign=middle;resizable=0;points=[];" parent="oMzu2f3fphEvVEeA5ftE-96" vertex="1" connectable="0">
          <mxGeometry x="-0.0087" y="-3" relative="1" as="geometry">
            <mxPoint x="2" y="2" as="offset" />
          </mxGeometry>
        </mxCell>
        <mxCell id="oMzu2f3fphEvVEeA5ftE-98" style="edgeStyle=orthogonalEdgeStyle;rounded=0;orthogonalLoop=1;jettySize=auto;html=1;exitX=-0.013;exitY=0.777;exitDx=0;exitDy=0;entryX=1;entryY=0.25;entryDx=0;entryDy=0;exitPerimeter=0;" parent="1" edge="1">
          <mxGeometry relative="1" as="geometry">
            <mxPoint x="389" y="1020" as="sourcePoint" />
            <mxPoint x="290" y="1020" as="targetPoint" />
          </mxGeometry>
        </mxCell>
        <mxCell id="oMzu2f3fphEvVEeA5ftE-101" value="&lt;span style=&quot;font-size: 8px;&quot;&gt;imm/offset&lt;/span&gt;" style="edgeLabel;html=1;align=center;verticalAlign=middle;resizable=0;points=[];" parent="oMzu2f3fphEvVEeA5ftE-98" vertex="1" connectable="0">
          <mxGeometry x="-0.0567" y="-1" relative="1" as="geometry">
            <mxPoint as="offset" />
          </mxGeometry>
        </mxCell>
        <mxCell id="oMzu2f3fphEvVEeA5ftE-104" value="" style="endArrow=classic;html=1;rounded=0;dashed=1;entryX=1;entryY=0.5;entryDx=0;entryDy=0;" parent="1" target="oMzu2f3fphEvVEeA5ftE-66" edge="1">
          <mxGeometry width="50" height="50" relative="1" as="geometry">
            <mxPoint x="260" y="819.86" as="sourcePoint" />
            <mxPoint x="230" y="819.86" as="targetPoint" />
          </mxGeometry>
        </mxCell>
        <mxCell id="oMzu2f3fphEvVEeA5ftE-105" value="&lt;font style=&quot;font-size: 6px;&quot;&gt;sel_mpc&lt;/font&gt;" style="edgeLabel;html=1;align=center;verticalAlign=middle;resizable=0;points=[];" parent="oMzu2f3fphEvVEeA5ftE-104" vertex="1" connectable="0">
          <mxGeometry x="-0.2735" relative="1" as="geometry">
            <mxPoint x="1" y="-8" as="offset" />
          </mxGeometry>
        </mxCell>
        <mxCell id="oMzu2f3fphEvVEeA5ftE-106" value="" style="endArrow=classic;html=1;rounded=0;dashed=1;edgeStyle=orthogonalEdgeStyle;entryX=0;entryY=0.5;entryDx=0;entryDy=0;" parent="1" target="oMzu2f3fphEvVEeA5ftE-75" edge="1">
          <mxGeometry width="50" height="50" relative="1" as="geometry">
            <mxPoint x="80" y="780" as="sourcePoint" />
            <mxPoint x="94" y="820" as="targetPoint" />
            <Array as="points">
              <mxPoint x="80" y="780" />
              <mxPoint x="80" y="820" />
            </Array>
          </mxGeometry>
        </mxCell>
        <mxCell id="oMzu2f3fphEvVEeA5ftE-107" value="&lt;font style=&quot;font-size: 6px;&quot;&gt;sel_mpc_inc&lt;/font&gt;" style="edgeLabel;html=1;align=center;verticalAlign=middle;resizable=0;points=[];" parent="oMzu2f3fphEvVEeA5ftE-106" vertex="1" connectable="0">
          <mxGeometry x="-0.2735" relative="1" as="geometry">
            <mxPoint x="10" y="-28" as="offset" />
          </mxGeometry>
        </mxCell>
        <mxCell id="oMzu2f3fphEvVEeA5ftE-108" value="" style="rounded=0;whiteSpace=wrap;html=1;fillColor=none;dashed=1;dashPattern=8 8;strokeColor=#66CC00;movable=0;resizable=0;rotatable=0;deletable=0;editable=0;locked=1;connectable=0;" parent="1" vertex="1">
          <mxGeometry x="630" y="240" width="950" height="720" as="geometry" />
        </mxCell>
        <mxCell id="oMzu2f3fphEvVEeA5ftE-109" value="&lt;font style=&quot;color: rgb(102, 204, 0); font-size: 20px;&quot;&gt;DataPath&lt;/font&gt;" style="text;html=1;align=center;verticalAlign=middle;whiteSpace=wrap;rounded=0;" parent="1" vertex="1">
          <mxGeometry x="1460" y="200" width="120" height="30" as="geometry" />
        </mxCell>
        <mxCell id="oMzu2f3fphEvVEeA5ftE-185" style="edgeStyle=orthogonalEdgeStyle;rounded=0;orthogonalLoop=1;jettySize=auto;html=1;exitX=0.712;exitY=0.005;exitDx=0;exitDy=0;exitPerimeter=0;entryX=0.5;entryY=1;entryDx=0;entryDy=0;" parent="1" source="oMzu2f3fphEvVEeA5ftE-110" target="j9AMeiG-CyfgLosaFZG3-1" edge="1">
          <mxGeometry relative="1" as="geometry">
            <mxPoint x="1030" y="910" as="sourcePoint" />
            <Array as="points" />
            <mxPoint x="1190" y="920" as="targetPoint" />
          </mxGeometry>
        </mxCell>
        <mxCell id="oMzu2f3fphEvVEeA5ftE-186" value="imm/offset (20 bit)" style="edgeLabel;html=1;align=center;verticalAlign=middle;resizable=0;points=[];rotation=0;" parent="oMzu2f3fphEvVEeA5ftE-185" vertex="1" connectable="0">
          <mxGeometry x="-0.5335" y="5" relative="1" as="geometry">
            <mxPoint x="5" y="-33" as="offset" />
          </mxGeometry>
        </mxCell>
        <mxCell id="oMzu2f3fphEvVEeA5ftE-110" value="&lt;font style=&quot;color: rgb(102, 102, 255); font-size: 24px;&quot;&gt;Control Unit&lt;/font&gt;" style="rounded=0;whiteSpace=wrap;html=1;strokeColor=#6666FF;" parent="1" vertex="1">
          <mxGeometry x="820" y="990" width="520" height="160" as="geometry" />
        </mxCell>
        <mxCell id="oMzu2f3fphEvVEeA5ftE-124" style="edgeStyle=orthogonalEdgeStyle;rounded=0;orthogonalLoop=1;jettySize=auto;html=1;exitX=0.5;exitY=1;exitDx=0;exitDy=0;entryX=0;entryY=0.5;entryDx=0;entryDy=0;" parent="1" source="oMzu2f3fphEvVEeA5ftE-111" target="oMzu2f3fphEvVEeA5ftE-110" edge="1">
          <mxGeometry relative="1" as="geometry">
            <mxPoint x="1060" y="1000" as="targetPoint" />
            <Array as="points">
              <mxPoint x="710" y="1070" />
            </Array>
          </mxGeometry>
        </mxCell>
        <mxCell id="oMzu2f3fphEvVEeA5ftE-125" value="binary instruction" style="edgeLabel;html=1;align=center;verticalAlign=middle;resizable=0;points=[];" parent="oMzu2f3fphEvVEeA5ftE-124" vertex="1" connectable="0">
          <mxGeometry x="-0.3557" y="-2" relative="1" as="geometry">
            <mxPoint x="2" y="-30" as="offset" />
          </mxGeometry>
        </mxCell>
        <mxCell id="oMzu2f3fphEvVEeA5ftE-111" value="Instruction memory" style="rounded=0;whiteSpace=wrap;html=1;fillColor=none;movable=1;resizable=1;rotatable=1;deletable=1;editable=1;locked=0;connectable=1;" parent="1" vertex="1">
          <mxGeometry x="650" y="530" width="120" height="310" as="geometry" />
        </mxCell>
        <mxCell id="oMzu2f3fphEvVEeA5ftE-112" value="&lt;font style=&quot;font-size: 10px;&quot;&gt;32bit cell&lt;/font&gt;" style="rounded=1;whiteSpace=wrap;html=1;" parent="1" vertex="1">
          <mxGeometry x="670" y="540" width="80" height="20" as="geometry" />
        </mxCell>
        <mxCell id="oMzu2f3fphEvVEeA5ftE-113" value="&lt;font style=&quot;font-size: 10px;&quot;&gt;32bit cell&lt;/font&gt;" style="rounded=1;whiteSpace=wrap;html=1;" parent="1" vertex="1">
          <mxGeometry x="670" y="570" width="80" height="20" as="geometry" />
        </mxCell>
        <mxCell id="oMzu2f3fphEvVEeA5ftE-121" value="" style="rounded=0;whiteSpace=wrap;html=1;fillColor=none;dashed=1;dashPattern=8 8;" parent="1" vertex="1">
          <mxGeometry x="660" y="720" width="100" height="110" as="geometry" />
        </mxCell>
        <mxCell id="oMzu2f3fphEvVEeA5ftE-123" value="Stack" style="text;html=1;align=center;verticalAlign=middle;whiteSpace=wrap;rounded=0;strokeColor=default;" parent="1" vertex="1">
          <mxGeometry x="670" y="720" width="80" height="30" as="geometry" />
        </mxCell>
        <mxCell id="oMzu2f3fphEvVEeA5ftE-120" value="&lt;font style=&quot;font-size: 10px;&quot;&gt;32 bit cell&lt;/font&gt;" style="rounded=1;whiteSpace=wrap;html=1;" parent="1" vertex="1">
          <mxGeometry x="670" y="800" width="80" height="20" as="geometry" />
        </mxCell>
        <mxCell id="oMzu2f3fphEvVEeA5ftE-188" style="edgeStyle=orthogonalEdgeStyle;rounded=0;orthogonalLoop=1;jettySize=auto;html=1;exitX=1;exitY=0.75;exitDx=0;exitDy=0;entryX=0.5;entryY=1;entryDx=0;entryDy=0;" parent="1" source="oMzu2f3fphEvVEeA5ftE-126" target="oMzu2f3fphEvVEeA5ftE-181" edge="1">
          <mxGeometry relative="1" as="geometry" />
        </mxCell>
        <mxCell id="oMzu2f3fphEvVEeA5ftE-189" value="data (32 bit)" style="edgeLabel;html=1;align=center;verticalAlign=middle;resizable=0;points=[];" parent="oMzu2f3fphEvVEeA5ftE-188" vertex="1" connectable="0">
          <mxGeometry x="0.2792" y="1" relative="1" as="geometry">
            <mxPoint x="-39" y="-1" as="offset" />
          </mxGeometry>
        </mxCell>
        <mxCell id="oMzu2f3fphEvVEeA5ftE-126" value="Data memory" style="rounded=0;whiteSpace=wrap;html=1;fillColor=none;movable=1;resizable=1;rotatable=1;deletable=1;editable=1;locked=0;connectable=1;" parent="1" vertex="1">
          <mxGeometry x="1240" y="280" width="160" height="240" as="geometry" />
        </mxCell>
        <mxCell id="oMzu2f3fphEvVEeA5ftE-127" value="&lt;font style=&quot;font-size: 10px;&quot;&gt;32bit cell IO_IN&lt;/font&gt;" style="rounded=1;whiteSpace=wrap;html=1;strokeColor=#994C00;" parent="1" vertex="1">
          <mxGeometry x="1260" y="290" width="120" height="20" as="geometry" />
        </mxCell>
        <mxCell id="oMzu2f3fphEvVEeA5ftE-135" style="edgeStyle=orthogonalEdgeStyle;rounded=0;orthogonalLoop=1;jettySize=auto;html=1;exitX=1;exitY=0.5;exitDx=0;exitDy=0;" parent="1" source="oMzu2f3fphEvVEeA5ftE-128" edge="1">
          <mxGeometry relative="1" as="geometry">
            <mxPoint x="1439" y="330" as="targetPoint" />
          </mxGeometry>
        </mxCell>
        <mxCell id="oMzu2f3fphEvVEeA5ftE-128" value="&lt;font style=&quot;font-size: 10px;&quot;&gt;32bit cell IO_OUT&lt;/font&gt;" style="rounded=1;whiteSpace=wrap;html=1;strokeColor=#994C00;" parent="1" vertex="1">
          <mxGeometry x="1260" y="320" width="120" height="20" as="geometry" />
        </mxCell>
        <mxCell id="oMzu2f3fphEvVEeA5ftE-131" value="&lt;font style=&quot;font-size: 10px;&quot;&gt;32 bit cell&lt;/font&gt;" style="rounded=1;whiteSpace=wrap;html=1;" parent="1" vertex="1">
          <mxGeometry x="1259" y="350" width="121" height="20" as="geometry" />
        </mxCell>
        <mxCell id="oMzu2f3fphEvVEeA5ftE-133" style="edgeStyle=orthogonalEdgeStyle;rounded=0;orthogonalLoop=1;jettySize=auto;html=1;exitX=0;exitY=0.25;exitDx=0;exitDy=0;entryX=1;entryY=0.5;entryDx=0;entryDy=0;" parent="1" target="oMzu2f3fphEvVEeA5ftE-127" edge="1">
          <mxGeometry relative="1" as="geometry">
            <mxPoint x="1439" y="302.5" as="sourcePoint" />
            <Array as="points">
              <mxPoint x="1439" y="303" />
              <mxPoint x="1439" y="300" />
            </Array>
          </mxGeometry>
        </mxCell>
        <mxCell id="oMzu2f3fphEvVEeA5ftE-132" value="IO Controller" style="rounded=1;whiteSpace=wrap;html=1;" parent="1" vertex="1">
          <mxGeometry x="1440" y="290" width="120" height="50" as="geometry" />
        </mxCell>
        <mxCell id="oMzu2f3fphEvVEeA5ftE-136" value="" style="endArrow=classic;html=1;rounded=0;entryX=0.25;entryY=1;entryDx=0;entryDy=0;dashed=1;" parent="1" target="oMzu2f3fphEvVEeA5ftE-132" edge="1">
          <mxGeometry width="50" height="50" relative="1" as="geometry">
            <mxPoint x="1470" y="400" as="sourcePoint" />
            <mxPoint x="1480" y="350" as="targetPoint" />
          </mxGeometry>
        </mxCell>
        <mxCell id="oMzu2f3fphEvVEeA5ftE-137" value="write_buf" style="edgeLabel;html=1;align=center;verticalAlign=middle;resizable=0;points=[];" parent="oMzu2f3fphEvVEeA5ftE-136" vertex="1" connectable="0">
          <mxGeometry x="0.0506" y="1" relative="1" as="geometry">
            <mxPoint y="3" as="offset" />
          </mxGeometry>
        </mxCell>
        <mxCell id="oMzu2f3fphEvVEeA5ftE-141" value="" style="endArrow=classic;html=1;rounded=0;entryX=0.75;entryY=1;entryDx=0;entryDy=0;dashed=1;" parent="1" target="oMzu2f3fphEvVEeA5ftE-132" edge="1">
          <mxGeometry width="50" height="50" relative="1" as="geometry">
            <mxPoint x="1530" y="400" as="sourcePoint" />
            <mxPoint x="1539.81" y="340" as="targetPoint" />
          </mxGeometry>
        </mxCell>
        <mxCell id="oMzu2f3fphEvVEeA5ftE-142" value="read_buf" style="edgeLabel;html=1;align=center;verticalAlign=middle;resizable=0;points=[];" parent="oMzu2f3fphEvVEeA5ftE-141" vertex="1" connectable="0">
          <mxGeometry x="0.0506" y="1" relative="1" as="geometry">
            <mxPoint y="2" as="offset" />
          </mxGeometry>
        </mxCell>
        <mxCell id="oMzu2f3fphEvVEeA5ftE-143" value="" style="endArrow=classic;html=1;rounded=0;entryX=0.25;entryY=1;entryDx=0;entryDy=0;dashed=1;" parent="1" edge="1">
          <mxGeometry width="50" height="50" relative="1" as="geometry">
            <mxPoint x="1279" y="580" as="sourcePoint" />
            <mxPoint x="1279" y="520" as="targetPoint" />
          </mxGeometry>
        </mxCell>
        <mxCell id="oMzu2f3fphEvVEeA5ftE-144" value="write_mem" style="edgeLabel;html=1;align=center;verticalAlign=middle;resizable=0;points=[];" parent="oMzu2f3fphEvVEeA5ftE-143" vertex="1" connectable="0">
          <mxGeometry x="0.0506" y="1" relative="1" as="geometry">
            <mxPoint y="3" as="offset" />
          </mxGeometry>
        </mxCell>
        <mxCell id="oMzu2f3fphEvVEeA5ftE-145" value="" style="endArrow=classic;html=1;rounded=0;entryX=0.75;entryY=1;entryDx=0;entryDy=0;dashed=1;" parent="1" edge="1">
          <mxGeometry width="50" height="50" relative="1" as="geometry">
            <mxPoint x="1359" y="580" as="sourcePoint" />
            <mxPoint x="1359" y="520" as="targetPoint" />
          </mxGeometry>
        </mxCell>
        <mxCell id="oMzu2f3fphEvVEeA5ftE-146" value="read_mem" style="edgeLabel;html=1;align=center;verticalAlign=middle;resizable=0;points=[];" parent="oMzu2f3fphEvVEeA5ftE-145" vertex="1" connectable="0">
          <mxGeometry x="0.0506" y="1" relative="1" as="geometry">
            <mxPoint y="2" as="offset" />
          </mxGeometry>
        </mxCell>
        <mxCell id="oMzu2f3fphEvVEeA5ftE-147" value="&lt;font style=&quot;font-size: 10px;&quot;&gt;...&lt;/font&gt;" style="rounded=1;whiteSpace=wrap;html=1;" parent="1" vertex="1">
          <mxGeometry x="1259" y="460" width="121" height="20" as="geometry" />
        </mxCell>
        <mxCell id="oMzu2f3fphEvVEeA5ftE-148" value="&lt;font style=&quot;font-size: 10px;&quot;&gt;32 bit cell&lt;/font&gt;" style="rounded=1;whiteSpace=wrap;html=1;" parent="1" vertex="1">
          <mxGeometry x="1259.5" y="490" width="121" height="20" as="geometry" />
        </mxCell>
        <mxCell id="oMzu2f3fphEvVEeA5ftE-149" value="&lt;span style=&quot;font-size: 10px;&quot;&gt;...&lt;/span&gt;" style="rounded=1;whiteSpace=wrap;html=1;" parent="1" vertex="1">
          <mxGeometry x="670" y="769" width="80" height="20" as="geometry" />
        </mxCell>
        <mxCell id="oMzu2f3fphEvVEeA5ftE-150" value="&lt;span style=&quot;font-size: 10px;&quot;&gt;...&lt;/span&gt;" style="rounded=1;whiteSpace=wrap;html=1;" parent="1" vertex="1">
          <mxGeometry x="670" y="600" width="80" height="20" as="geometry" />
        </mxCell>
        <mxCell id="oMzu2f3fphEvVEeA5ftE-160" style="edgeStyle=orthogonalEdgeStyle;rounded=0;orthogonalLoop=1;jettySize=auto;html=1;exitX=1;exitY=0.75;exitDx=0;exitDy=0;entryX=0.166;entryY=0.995;entryDx=0;entryDy=0;entryPerimeter=0;" parent="1" source="oMzu2f3fphEvVEeA5ftE-151" target="oMzu2f3fphEvVEeA5ftE-154" edge="1">
          <mxGeometry relative="1" as="geometry">
            <mxPoint x="880" y="490" as="targetPoint" />
          </mxGeometry>
        </mxCell>
        <mxCell id="oMzu2f3fphEvVEeA5ftE-163" style="edgeStyle=orthogonalEdgeStyle;rounded=0;orthogonalLoop=1;jettySize=auto;html=1;exitX=1;exitY=0.75;exitDx=0;exitDy=0;entryX=0;entryY=0.75;entryDx=0;entryDy=0;strokeColor=#33FF99;" parent="1" source="oMzu2f3fphEvVEeA5ftE-151" target="oMzu2f3fphEvVEeA5ftE-126" edge="1">
          <mxGeometry relative="1" as="geometry">
            <Array as="points">
              <mxPoint x="890" y="490" />
              <mxPoint x="890" y="580" />
              <mxPoint x="1220" y="580" />
              <mxPoint x="1220" y="460" />
            </Array>
          </mxGeometry>
        </mxCell>
        <mxCell id="oMzu2f3fphEvVEeA5ftE-164" value="&lt;font style=&quot;color: rgb(51, 255, 153);&quot;&gt;address (32 bit)&lt;/font&gt;" style="edgeLabel;html=1;align=center;verticalAlign=middle;resizable=0;points=[];" parent="oMzu2f3fphEvVEeA5ftE-163" vertex="1" connectable="0">
          <mxGeometry x="-0.105" relative="1" as="geometry">
            <mxPoint x="96" y="-10" as="offset" />
          </mxGeometry>
        </mxCell>
        <mxCell id="oMzu2f3fphEvVEeA5ftE-151" value="&lt;font style=&quot;color: rgb(255, 51, 51);&quot;&gt;Register File&lt;/font&gt;" style="rounded=1;whiteSpace=wrap;html=1;strokeColor=#FF3333;" parent="1" vertex="1">
          <mxGeometry x="760" y="400" width="120" height="120" as="geometry" />
        </mxCell>
        <mxCell id="oMzu2f3fphEvVEeA5ftE-190" style="edgeStyle=orthogonalEdgeStyle;rounded=0;orthogonalLoop=1;jettySize=auto;html=1;exitX=0.5;exitY=0;exitDx=0;exitDy=0;entryX=0.75;entryY=1;entryDx=0;entryDy=0;jumpStyle=arc;fillColor=#dae8fc;strokeColor=#6C8EBF;" parent="1" source="oMzu2f3fphEvVEeA5ftE-152" target="oMzu2f3fphEvVEeA5ftE-181" edge="1">
          <mxGeometry relative="1" as="geometry">
            <Array as="points">
              <mxPoint x="1190" y="460" />
              <mxPoint x="1190" y="775" />
            </Array>
          </mxGeometry>
        </mxCell>
        <mxCell id="oMzu2f3fphEvVEeA5ftE-197" style="edgeStyle=orthogonalEdgeStyle;rounded=0;orthogonalLoop=1;jettySize=auto;html=1;exitX=0.5;exitY=0;exitDx=0;exitDy=0;strokeColor=#6C8EBF;jumpStyle=arc;entryX=0.75;entryY=1;entryDx=0;entryDy=0;" parent="1" source="oMzu2f3fphEvVEeA5ftE-152" target="oMzu2f3fphEvVEeA5ftE-198" edge="1">
          <mxGeometry relative="1" as="geometry">
            <mxPoint x="790" y="620" as="targetPoint" />
            <Array as="points">
              <mxPoint x="1190" y="460" />
              <mxPoint x="1190" y="640" />
            </Array>
          </mxGeometry>
        </mxCell>
        <mxCell id="oMzu2f3fphEvVEeA5ftE-206" value="alu_res (32 bit)" style="edgeLabel;html=1;align=center;verticalAlign=middle;resizable=0;points=[];" parent="oMzu2f3fphEvVEeA5ftE-197" vertex="1" connectable="0">
          <mxGeometry x="-0.7196" y="1" relative="1" as="geometry">
            <mxPoint as="offset" />
          </mxGeometry>
        </mxCell>
        <mxCell id="oMzu2f3fphEvVEeA5ftE-152" value="ALU" style="shape=trapezoid;perimeter=trapezoidPerimeter;whiteSpace=wrap;html=1;fixedSize=1;direction=south;" parent="1" vertex="1">
          <mxGeometry x="1020" y="400" width="60" height="120" as="geometry" />
        </mxCell>
        <mxCell id="oMzu2f3fphEvVEeA5ftE-155" style="edgeStyle=orthogonalEdgeStyle;rounded=0;orthogonalLoop=1;jettySize=auto;html=1;exitX=0.5;exitY=0;exitDx=0;exitDy=0;entryX=0.25;entryY=1;entryDx=0;entryDy=0;" parent="1" source="oMzu2f3fphEvVEeA5ftE-153" target="oMzu2f3fphEvVEeA5ftE-152" edge="1">
          <mxGeometry relative="1" as="geometry" />
        </mxCell>
        <mxCell id="oMzu2f3fphEvVEeA5ftE-153" value="MUX" style="shape=trapezoid;perimeter=trapezoidPerimeter;whiteSpace=wrap;html=1;fixedSize=1;direction=south;" parent="1" vertex="1">
          <mxGeometry x="940" y="381" width="40" height="60" as="geometry" />
        </mxCell>
        <mxCell id="oMzu2f3fphEvVEeA5ftE-156" style="edgeStyle=orthogonalEdgeStyle;rounded=0;orthogonalLoop=1;jettySize=auto;html=1;exitX=0.5;exitY=0;exitDx=0;exitDy=0;entryX=0.75;entryY=1;entryDx=0;entryDy=0;" parent="1" source="oMzu2f3fphEvVEeA5ftE-154" target="oMzu2f3fphEvVEeA5ftE-152" edge="1">
          <mxGeometry relative="1" as="geometry" />
        </mxCell>
        <mxCell id="oMzu2f3fphEvVEeA5ftE-154" value="MUX" style="shape=trapezoid;perimeter=trapezoidPerimeter;whiteSpace=wrap;html=1;fixedSize=1;direction=south;" parent="1" vertex="1">
          <mxGeometry x="940" y="480" width="40" height="60" as="geometry" />
        </mxCell>
        <mxCell id="oMzu2f3fphEvVEeA5ftE-157" value="" style="endArrow=classic;html=1;rounded=0;entryX=0.163;entryY=1;entryDx=0;entryDy=0;entryPerimeter=0;" parent="1" target="oMzu2f3fphEvVEeA5ftE-153" edge="1">
          <mxGeometry width="50" height="50" relative="1" as="geometry">
            <mxPoint x="900" y="390.85" as="sourcePoint" />
            <mxPoint x="940" y="390.70000000000005" as="targetPoint" />
          </mxGeometry>
        </mxCell>
        <mxCell id="oMzu2f3fphEvVEeA5ftE-158" value="+1" style="edgeLabel;html=1;align=center;verticalAlign=middle;resizable=0;points=[];" parent="oMzu2f3fphEvVEeA5ftE-157" vertex="1" connectable="0">
          <mxGeometry x="-0.2568" y="2" relative="1" as="geometry">
            <mxPoint y="3" as="offset" />
          </mxGeometry>
        </mxCell>
        <mxCell id="oMzu2f3fphEvVEeA5ftE-159" style="edgeStyle=orthogonalEdgeStyle;rounded=0;orthogonalLoop=1;jettySize=auto;html=1;exitX=1;exitY=0.25;exitDx=0;exitDy=0;entryX=0.816;entryY=0.994;entryDx=0;entryDy=0;entryPerimeter=0;" parent="1" source="oMzu2f3fphEvVEeA5ftE-151" target="oMzu2f3fphEvVEeA5ftE-153" edge="1">
          <mxGeometry relative="1" as="geometry" />
        </mxCell>
        <mxCell id="oMzu2f3fphEvVEeA5ftE-161" style="edgeStyle=orthogonalEdgeStyle;rounded=0;orthogonalLoop=1;jettySize=auto;html=1;exitX=1;exitY=0.25;exitDx=0;exitDy=0;entryX=0;entryY=0.169;entryDx=0;entryDy=0;entryPerimeter=0;strokeColor=#33FF99;" parent="1" source="oMzu2f3fphEvVEeA5ftE-151" target="oMzu2f3fphEvVEeA5ftE-126" edge="1">
          <mxGeometry relative="1" as="geometry">
            <Array as="points">
              <mxPoint x="890" y="430" />
              <mxPoint x="890" y="321" />
            </Array>
          </mxGeometry>
        </mxCell>
        <mxCell id="oMzu2f3fphEvVEeA5ftE-162" value="&lt;font style=&quot;color: rgb(51, 255, 153);&quot;&gt;data (32 bit)&lt;/font&gt;" style="edgeLabel;html=1;align=center;verticalAlign=middle;resizable=0;points=[];" parent="oMzu2f3fphEvVEeA5ftE-161" vertex="1" connectable="0">
          <mxGeometry x="0.0811" relative="1" as="geometry">
            <mxPoint x="125" y="-11" as="offset" />
          </mxGeometry>
        </mxCell>
        <mxCell id="oMzu2f3fphEvVEeA5ftE-165" value="" style="endArrow=classic;html=1;rounded=0;entryX=0;entryY=0;entryDx=0;entryDy=0;dashed=1;" parent="1" target="oMzu2f3fphEvVEeA5ftE-59" edge="1">
          <mxGeometry width="50" height="50" relative="1" as="geometry">
            <mxPoint x="90" y="679.5699999999999" as="sourcePoint" />
            <mxPoint x="130" y="679.5699999999999" as="targetPoint" />
          </mxGeometry>
        </mxCell>
        <mxCell id="oMzu2f3fphEvVEeA5ftE-166" value="&lt;font style=&quot;font-size: 8px;&quot;&gt;latch_ir&lt;/font&gt;" style="edgeLabel;html=1;align=center;verticalAlign=middle;resizable=0;points=[];" parent="oMzu2f3fphEvVEeA5ftE-165" vertex="1" connectable="0">
          <mxGeometry x="0.0535" relative="1" as="geometry">
            <mxPoint x="-9" y="-13" as="offset" />
          </mxGeometry>
        </mxCell>
        <mxCell id="oMzu2f3fphEvVEeA5ftE-167" value="" style="endArrow=classic;html=1;rounded=0;entryX=0;entryY=0;entryDx=0;entryDy=0;dashed=1;" parent="1" target="oMzu2f3fphEvVEeA5ftE-60" edge="1">
          <mxGeometry width="50" height="50" relative="1" as="geometry">
            <mxPoint x="350" y="679.9999999999999" as="sourcePoint" />
            <mxPoint x="390" y="680.43" as="targetPoint" />
          </mxGeometry>
        </mxCell>
        <mxCell id="oMzu2f3fphEvVEeA5ftE-168" value="&lt;font style=&quot;font-size: 8px;&quot;&gt;latch_ops&lt;/font&gt;" style="edgeLabel;html=1;align=center;verticalAlign=middle;resizable=0;points=[];" parent="oMzu2f3fphEvVEeA5ftE-167" vertex="1" connectable="0">
          <mxGeometry x="0.0535" relative="1" as="geometry">
            <mxPoint x="-5" y="-13" as="offset" />
          </mxGeometry>
        </mxCell>
        <mxCell id="oMzu2f3fphEvVEeA5ftE-169" value="" style="endArrow=classic;html=1;rounded=0;entryX=1;entryY=1;entryDx=0;entryDy=0;dashed=1;" parent="1" target="oMzu2f3fphEvVEeA5ftE-77" edge="1">
          <mxGeometry width="50" height="50" relative="1" as="geometry">
            <mxPoint x="270" y="920.4300000000001" as="sourcePoint" />
            <mxPoint x="230" y="920" as="targetPoint" />
          </mxGeometry>
        </mxCell>
        <mxCell id="oMzu2f3fphEvVEeA5ftE-170" value="&lt;font style=&quot;font-size: 8px;&quot;&gt;latch_mpc&lt;/font&gt;" style="edgeLabel;html=1;align=center;verticalAlign=middle;resizable=0;points=[];" parent="oMzu2f3fphEvVEeA5ftE-169" vertex="1" connectable="0">
          <mxGeometry x="0.0535" relative="1" as="geometry">
            <mxPoint x="3" y="11" as="offset" />
          </mxGeometry>
        </mxCell>
        <mxCell id="oMzu2f3fphEvVEeA5ftE-171" value="" style="endArrow=classic;html=1;rounded=0;dashed=1;entryX=0.5;entryY=0;entryDx=0;entryDy=0;" parent="1" target="oMzu2f3fphEvVEeA5ftE-151" edge="1">
          <mxGeometry width="50" height="50" relative="1" as="geometry">
            <mxPoint x="820" y="359.28" as="sourcePoint" />
            <mxPoint x="820.04" y="400" as="targetPoint" />
          </mxGeometry>
        </mxCell>
        <mxCell id="oMzu2f3fphEvVEeA5ftE-172" value="&lt;font style=&quot;font-size: 8px;&quot;&gt;latch_reg_n&lt;/font&gt;" style="edgeLabel;html=1;align=center;verticalAlign=middle;resizable=0;points=[];" parent="oMzu2f3fphEvVEeA5ftE-171" vertex="1" connectable="0">
          <mxGeometry x="0.0535" relative="1" as="geometry">
            <mxPoint x="-3" y="-5" as="offset" />
          </mxGeometry>
        </mxCell>
        <mxCell id="oMzu2f3fphEvVEeA5ftE-175" value="" style="endArrow=classic;html=1;rounded=0;dashed=1;entryX=0;entryY=0.5;entryDx=0;entryDy=0;" parent="1" target="oMzu2f3fphEvVEeA5ftE-153" edge="1">
          <mxGeometry width="50" height="50" relative="1" as="geometry">
            <mxPoint x="959.85" y="350" as="sourcePoint" />
            <mxPoint x="959.85" y="391" as="targetPoint" />
          </mxGeometry>
        </mxCell>
        <mxCell id="oMzu2f3fphEvVEeA5ftE-176" value="&lt;font style=&quot;font-size: 8px;&quot;&gt;sel_alu_r&lt;/font&gt;" style="edgeLabel;html=1;align=center;verticalAlign=middle;resizable=0;points=[];" parent="oMzu2f3fphEvVEeA5ftE-175" vertex="1" connectable="0">
          <mxGeometry x="0.0535" relative="1" as="geometry">
            <mxPoint y="-5" as="offset" />
          </mxGeometry>
        </mxCell>
        <mxCell id="oMzu2f3fphEvVEeA5ftE-177" value="" style="endArrow=classic;html=1;rounded=0;dashed=1;entryX=1;entryY=0.5;entryDx=0;entryDy=0;" parent="1" target="oMzu2f3fphEvVEeA5ftE-154" edge="1">
          <mxGeometry width="50" height="50" relative="1" as="geometry">
            <mxPoint x="960.08" y="571" as="sourcePoint" />
            <mxPoint x="959.9300000000001" y="530" as="targetPoint" />
          </mxGeometry>
        </mxCell>
        <mxCell id="oMzu2f3fphEvVEeA5ftE-178" value="&lt;font style=&quot;font-size: 8px;&quot;&gt;sel_alu_l&lt;/font&gt;" style="edgeLabel;html=1;align=center;verticalAlign=middle;resizable=0;points=[];" parent="oMzu2f3fphEvVEeA5ftE-177" vertex="1" connectable="0">
          <mxGeometry x="0.0535" relative="1" as="geometry">
            <mxPoint y="4" as="offset" />
          </mxGeometry>
        </mxCell>
        <mxCell id="oMzu2f3fphEvVEeA5ftE-179" value="" style="endArrow=classic;html=1;rounded=0;dashed=1;entryX=0;entryY=0.5;entryDx=0;entryDy=0;" parent="1" target="oMzu2f3fphEvVEeA5ftE-152" edge="1">
          <mxGeometry width="50" height="50" relative="1" as="geometry">
            <mxPoint x="1049.82" y="370" as="sourcePoint" />
            <mxPoint x="1049.97" y="411" as="targetPoint" />
          </mxGeometry>
        </mxCell>
        <mxCell id="oMzu2f3fphEvVEeA5ftE-180" value="&lt;font style=&quot;font-size: 8px;&quot;&gt;alu_op&lt;/font&gt;" style="edgeLabel;html=1;align=center;verticalAlign=middle;resizable=0;points=[];" parent="oMzu2f3fphEvVEeA5ftE-179" vertex="1" connectable="0">
          <mxGeometry x="0.0535" relative="1" as="geometry">
            <mxPoint y="-5" as="offset" />
          </mxGeometry>
        </mxCell>
        <mxCell id="oMzu2f3fphEvVEeA5ftE-182" style="edgeStyle=orthogonalEdgeStyle;rounded=0;orthogonalLoop=1;jettySize=auto;html=1;exitX=0.5;exitY=0;exitDx=0;exitDy=0;entryX=0.5;entryY=1;entryDx=0;entryDy=0;" parent="1" source="oMzu2f3fphEvVEeA5ftE-181" target="oMzu2f3fphEvVEeA5ftE-151" edge="1">
          <mxGeometry relative="1" as="geometry">
            <Array as="points">
              <mxPoint x="820" y="795" />
            </Array>
          </mxGeometry>
        </mxCell>
        <mxCell id="oMzu2f3fphEvVEeA5ftE-187" value="32 bit" style="edgeLabel;html=1;align=center;verticalAlign=middle;resizable=0;points=[];" parent="oMzu2f3fphEvVEeA5ftE-182" vertex="1" connectable="0">
          <mxGeometry x="-0.5194" relative="1" as="geometry">
            <mxPoint as="offset" />
          </mxGeometry>
        </mxCell>
        <mxCell id="oMzu2f3fphEvVEeA5ftE-181" value="MUX" style="shape=trapezoid;perimeter=trapezoidPerimeter;whiteSpace=wrap;html=1;fixedSize=1;direction=north;" parent="1" vertex="1">
          <mxGeometry x="1100" y="755.5" width="40" height="80" as="geometry" />
        </mxCell>
        <mxCell id="oMzu2f3fphEvVEeA5ftE-183" value="" style="endArrow=classic;html=1;rounded=0;dashed=1;entryX=1;entryY=0.5;entryDx=0;entryDy=0;" parent="1" target="oMzu2f3fphEvVEeA5ftE-181" edge="1">
          <mxGeometry width="50" height="50" relative="1" as="geometry">
            <mxPoint x="1119.92" y="726" as="sourcePoint" />
            <mxPoint x="1119.93" y="765" as="targetPoint" />
          </mxGeometry>
        </mxCell>
        <mxCell id="oMzu2f3fphEvVEeA5ftE-184" value="&lt;font style=&quot;font-size: 8px;&quot;&gt;sel_data_src&lt;/font&gt;" style="edgeLabel;html=1;align=center;verticalAlign=middle;resizable=0;points=[];" parent="oMzu2f3fphEvVEeA5ftE-183" vertex="1" connectable="0">
          <mxGeometry x="0.0535" relative="1" as="geometry">
            <mxPoint y="-4" as="offset" />
          </mxGeometry>
        </mxCell>
        <mxCell id="oMzu2f3fphEvVEeA5ftE-196" style="edgeStyle=orthogonalEdgeStyle;rounded=0;orthogonalLoop=1;jettySize=auto;html=1;exitX=0.5;exitY=0;exitDx=0;exitDy=0;jumpStyle=arc;" parent="1" source="oMzu2f3fphEvVEeA5ftE-194" edge="1">
          <mxGeometry relative="1" as="geometry">
            <mxPoint x="940" y="530" as="targetPoint" />
            <Array as="points">
              <mxPoint x="910" y="640" />
              <mxPoint x="910" y="530" />
            </Array>
          </mxGeometry>
        </mxCell>
        <mxCell id="oMzu2f3fphEvVEeA5ftE-194" value="PC" style="rounded=0;whiteSpace=wrap;html=1;" parent="1" vertex="1">
          <mxGeometry x="870" y="640" width="80" height="40" as="geometry" />
        </mxCell>
        <mxCell id="oMzu2f3fphEvVEeA5ftE-201" style="edgeStyle=orthogonalEdgeStyle;rounded=0;orthogonalLoop=1;jettySize=auto;html=1;exitX=0.5;exitY=0;exitDx=0;exitDy=0;entryX=1;entryY=0.5;entryDx=0;entryDy=0;" parent="1" source="oMzu2f3fphEvVEeA5ftE-198" target="oMzu2f3fphEvVEeA5ftE-194" edge="1">
          <mxGeometry relative="1" as="geometry" />
        </mxCell>
        <mxCell id="oMzu2f3fphEvVEeA5ftE-198" value="MUX" style="shape=trapezoid;perimeter=trapezoidPerimeter;whiteSpace=wrap;html=1;fixedSize=1;direction=north;" parent="1" vertex="1">
          <mxGeometry x="1100" y="620" width="40" height="80" as="geometry" />
        </mxCell>
        <mxCell id="oMzu2f3fphEvVEeA5ftE-199" value="" style="endArrow=classic;html=1;rounded=0;dashed=1;entryX=1;entryY=0.5;entryDx=0;entryDy=0;" parent="1" target="oMzu2f3fphEvVEeA5ftE-198" edge="1">
          <mxGeometry width="50" height="50" relative="1" as="geometry">
            <mxPoint x="1120" y="590" as="sourcePoint" />
            <mxPoint x="1119.82" y="629.9999999999999" as="targetPoint" />
          </mxGeometry>
        </mxCell>
        <mxCell id="oMzu2f3fphEvVEeA5ftE-200" value="&lt;font style=&quot;font-size: 8px;&quot;&gt;sel_pc&lt;/font&gt;" style="edgeLabel;html=1;align=center;verticalAlign=middle;resizable=0;points=[];" parent="oMzu2f3fphEvVEeA5ftE-199" vertex="1" connectable="0">
          <mxGeometry x="0.0535" relative="1" as="geometry">
            <mxPoint y="-6" as="offset" />
          </mxGeometry>
        </mxCell>
        <mxCell id="oMzu2f3fphEvVEeA5ftE-202" value="" style="endArrow=classic;html=1;rounded=0;entryX=0.25;entryY=1;entryDx=0;entryDy=0;" parent="1" target="oMzu2f3fphEvVEeA5ftE-198" edge="1">
          <mxGeometry width="50" height="50" relative="1" as="geometry">
            <mxPoint x="1180" y="680" as="sourcePoint" />
            <mxPoint x="1141" y="680.0000000000001" as="targetPoint" />
          </mxGeometry>
        </mxCell>
        <mxCell id="oMzu2f3fphEvVEeA5ftE-203" value="+1" style="edgeLabel;html=1;align=center;verticalAlign=middle;resizable=0;points=[];" parent="oMzu2f3fphEvVEeA5ftE-202" vertex="1" connectable="0">
          <mxGeometry x="-0.2568" y="2" relative="1" as="geometry">
            <mxPoint x="-1" y="-1" as="offset" />
          </mxGeometry>
        </mxCell>
        <mxCell id="oMzu2f3fphEvVEeA5ftE-207" style="edgeStyle=orthogonalEdgeStyle;rounded=0;orthogonalLoop=1;jettySize=auto;html=1;exitX=0.889;exitY=0.34;exitDx=0;exitDy=0;jumpStyle=arc;entryX=0.461;entryY=0.005;entryDx=0;entryDy=0;entryPerimeter=0;strokeColor=#FF0080;exitPerimeter=0;" parent="1" source="oMzu2f3fphEvVEeA5ftE-152" target="oMzu2f3fphEvVEeA5ftE-110" edge="1">
          <mxGeometry relative="1" as="geometry">
            <mxPoint x="1061.8584615384616" y="506.4738461538462" as="sourcePoint" />
            <mxPoint x="1060.0400000000004" y="919.9999999999999" as="targetPoint" />
            <Array as="points" />
          </mxGeometry>
        </mxCell>
        <mxCell id="oMzu2f3fphEvVEeA5ftE-208" value="&lt;font style=&quot;color: rgb(255, 0, 128);&quot;&gt;NZ Flags&lt;/font&gt;" style="edgeLabel;html=1;align=center;verticalAlign=middle;resizable=0;points=[];rotation=0;" parent="oMzu2f3fphEvVEeA5ftE-207" vertex="1" connectable="0">
          <mxGeometry x="0.53" y="1" relative="1" as="geometry">
            <mxPoint x="-1" y="42" as="offset" />
          </mxGeometry>
        </mxCell>
        <mxCell id="oMzu2f3fphEvVEeA5ftE-209" style="edgeStyle=orthogonalEdgeStyle;rounded=0;orthogonalLoop=1;jettySize=auto;html=1;exitX=0;exitY=0.5;exitDx=0;exitDy=0;entryX=1.006;entryY=0.42;entryDx=0;entryDy=0;entryPerimeter=0;jumpStyle=arc;" parent="1" source="oMzu2f3fphEvVEeA5ftE-194" target="oMzu2f3fphEvVEeA5ftE-111" edge="1">
          <mxGeometry relative="1" as="geometry" />
        </mxCell>
        <mxCell id="oMzu2f3fphEvVEeA5ftE-210" value="" style="endArrow=classic;html=1;rounded=0;dashed=1;entryX=1;entryY=0.5;entryDx=0;entryDy=0;" parent="1" edge="1">
          <mxGeometry width="50" height="50" relative="1" as="geometry">
            <mxPoint x="950" y="720" as="sourcePoint" />
            <mxPoint x="950" y="680" as="targetPoint" />
          </mxGeometry>
        </mxCell>
        <mxCell id="oMzu2f3fphEvVEeA5ftE-211" value="&lt;span style=&quot;font-size: 8px;&quot;&gt;latch_pc&lt;/span&gt;" style="edgeLabel;html=1;align=center;verticalAlign=middle;resizable=0;points=[];" parent="oMzu2f3fphEvVEeA5ftE-210" vertex="1" connectable="0">
          <mxGeometry x="0.0535" relative="1" as="geometry">
            <mxPoint y="4" as="offset" />
          </mxGeometry>
        </mxCell>
        <mxCell id="j9AMeiG-CyfgLosaFZG3-2" style="edgeStyle=orthogonalEdgeStyle;rounded=0;orthogonalLoop=1;jettySize=auto;html=1;exitX=0.5;exitY=0;exitDx=0;exitDy=0;entryX=0.25;entryY=1;entryDx=0;entryDy=0;" edge="1" parent="1" source="j9AMeiG-CyfgLosaFZG3-1" target="oMzu2f3fphEvVEeA5ftE-181">
          <mxGeometry relative="1" as="geometry" />
        </mxCell>
        <mxCell id="j9AMeiG-CyfgLosaFZG3-1" value="sign&lt;div&gt;&lt;span style=&quot;background-color: transparent; color: light-dark(rgb(0, 0, 0), rgb(255, 255, 255));&quot;&gt;extender&lt;/span&gt;&lt;/div&gt;" style="shape=parallelogram;perimeter=parallelogramPerimeter;whiteSpace=wrap;html=1;fixedSize=1;" vertex="1" parent="1">
          <mxGeometry x="1150" y="840" width="80" height="60" as="geometry" />
        </mxCell>
      </root>
    </mxGraphModel>
  </diagram>
</mxfile>
